<svg width="71" height="71" viewBox="0 0 71 71" fill="none" xmlns="http://www.w3.org/2000/svg">
<path d="M35.5 17.75C33.3059 17.75 31.161 18.4006 29.3366 19.6196C27.5123 20.8386 26.0904 22.5712 25.2507 24.5984C24.4111 26.6255 24.1914 28.8561 24.6194 31.008C25.0475 33.16 26.1041 35.1367 27.6555 36.6882C29.207 38.2397 31.1837 39.2963 33.3357 39.7243C35.4877 40.1524 37.7183 39.9327 39.7454 39.093C41.7725 38.2534 43.5051 36.8315 44.7241 35.0071C45.9431 33.1828 46.5938 31.0379 46.5938 28.8438C46.5938 25.9015 45.425 23.0798 43.3445 20.9993C41.264 18.9188 38.4423 17.75 35.5 17.75Z" fill="black"/>
<path d="M35.5 4.4375C29.3564 4.4375 23.3508 6.25928 18.2426 9.67248C13.1344 13.0857 9.15305 17.937 6.80201 23.6129C4.45096 29.2888 3.83582 35.5345 5.03437 41.56C6.23292 47.5855 9.19134 53.1203 13.5355 57.4645C17.8797 61.8087 23.4145 64.7671 29.44 65.9656C35.4656 67.1642 41.7112 66.5491 47.3871 64.198C53.063 61.847 57.9143 57.8656 61.3275 52.7574C64.7407 47.6492 66.5625 41.6436 66.5625 35.5C66.5531 27.2646 63.2774 19.3692 57.4541 13.5459C51.6308 7.72256 43.7354 4.4469 35.5 4.4375ZM53.2323 55.3046C53.188 52.3943 52.0023 49.6179 49.9306 47.5735C47.8588 45.5292 45.0669 44.3805 42.1563 44.375H28.8438C25.9332 44.3805 23.1412 45.5292 21.0695 47.5735C18.9977 49.6179 17.812 52.3943 17.7678 55.3046C13.7442 51.7118 10.9068 46.9817 9.63124 41.7406C8.35569 36.4995 8.70217 30.9945 10.6248 25.9546C12.5474 20.9148 15.9555 16.5778 20.3978 13.5179C24.8401 10.458 30.107 8.81959 35.5011 8.81959C40.8953 8.81959 46.1622 10.458 50.6044 13.5179C55.0467 16.5778 58.4548 20.9148 60.3774 25.9546C62.3001 30.9945 62.6465 36.4995 61.371 41.7406C60.0955 46.9817 57.258 51.7118 53.2345 55.3046H53.2323Z" fill="black"/>
</svg>
